<?xml version="1.0" standalone="no"?>
<!DOCTYPE svg PUBLIC "-//W3C//DTD SVG 20010904//EN"
 "http://www.w3.org/TR/2001/REC-SVG-20010904/DTD/svg10.dtd">
<svg version="1.0" xmlns="http://www.w3.org/2000/svg"
 width="1548.000000pt" height="1548.000000pt" viewBox="0 0 1548.000000 1548.000000"
 preserveAspectRatio="xMidYMid meet">
<metadata>
Created by potrace 1.14, written by Peter Selinger 2001-2017
</metadata>
<g transform="translate(0.000000,1548.000000) scale(0.100000,-0.100000)"
fill="#000000" stroke="none">
<path d="M11550 14269 c-1840 -104 -4037 -925 -6010 -2244 -399 -267 -863
-610 -890 -657 -13 -24 -13 -29 0 -42 14 -14 29 -11 137 24 880 287 1704 277
2423 -30 162 -70 185 -75 236 -57 21 7 137 81 256 164 1428 992 2917 1666
4123 1867 325 54 409 61 760 61 364 -1 477 -12 730 -74 730 -179 1234 -643
1439 -1325 136 -451 129 -912 -20 -1509 -177 -705 -557 -1423 -998 -1884 -155
-163 -250 -208 -299 -141 -22 29 -17 -12 -122 1013 -61 592 -139 1326 -157
1475 -9 75 -16 99 -34 117 l-23 23 -439 0 c-404 0 -441 -1 -461 -17 -15 -13
-3657 -6669 -3773 -6896 -29 -58 -33 -125 -11 -167 107 -198 599 -1100 610
-1118 17 -28 36 -28 76 0 73 50 578 432 932 703 209 160 495 377 635 482 1523
1138 2736 2389 3580 3693 1000 1547 1404 3066 1135 4275 -61 274 -196 609
-339 845 -192 314 -492 621 -815 834 -671 443 -1602 646 -2681 585z"/>
<path d="M5690 11149 c-786 -86 -1566 -424 -2307 -1002 -78 -60 -103 -85 -103
-103 0 -33 34 -48 110 -48 58 0 88 9 275 83 115 45 284 114 375 153 408 173
768 264 1129 287 835 53 1435 -346 1535 -1021 80 -536 -158 -1167 -689 -1828
-186 -232 -522 -557 -760 -737 -471 -355 -1265 -748 -1624 -805 -72 -11 -85
-16 -92 -36 -5 -13 -9 -147 -9 -298 0 -211 3 -282 14 -308 10 -24 80 -86 262
-231 1123 -896 3496 -2807 4069 -3278 127 -104 244 -196 260 -205 26 -15 77
-17 427 -20 425 -3 457 0 502 44 59 60 136 -81 -1124 2085 -632 1087 -1150
1979 -1150 1982 0 3 46 33 103 68 784 479 1262 1181 1412 2073 104 618 51
1239 -149 1750 -299 765 -916 1250 -1756 1381 -124 20 -578 29 -710 14z"/>
<path d="M4710 9983 c-734 -33 -1480 -324 -2161 -844 -670 -511 -1391 -1403
-1853 -2291 -601 -1155 -817 -2356 -600 -3338 34 -152 119 -408 183 -548 253
-560 691 -1006 1282 -1307 466 -237 947 -367 1609 -436 169 -17 744 -23 962
-10 835 51 1697 231 2613 545 121 42 258 90 305 109 128 49 130 45 -140 265
-124 101 -240 190 -257 198 -31 13 -50 10 -315 -56 -1063 -265 -1998 -353
-2788 -264 -1126 127 -1870 597 -2123 1344 -297 873 113 2036 1162 3295 377
453 894 970 1409 1408 527 448 1098 868 1732 1273 96 62 179 118 184 126 20
32 -6 74 -102 168 -53 53 -124 114 -157 135 -201 132 -433 203 -733 225 -75 5
-139 9 -142 8 -3 -1 -34 -3 -70 -5z"/>
<path d="M13559 6075 c-14 -8 -75 -69 -135 -137 -403 -455 -1089 -1135 -1429
-1418 -61 -50 -114 -98 -119 -107 -23 -42 5 -105 352 -783 193 -377 483 -943
644 -1259 212 -416 301 -580 321 -595 28 -20 40 -21 410 -24 273 -2 388 1 403
9 31 16 44 51 44 118 0 94 -389 4143 -401 4173 -6 14 -20 29 -32 32 -28 7 -28
8 -58 -9z"/>
</g>
</svg>
